<?xml version="1.0" standalone="no"?>
<!DOCTYPE svg PUBLIC "-//W3C//DTD SVG 20010904//EN"
 "http://www.w3.org/TR/2001/REC-SVG-20010904/DTD/svg10.dtd">
<svg version="1.0" xmlns="http://www.w3.org/2000/svg"
 width="256.000000pt" height="256.000000pt" viewBox="0 0 256.000000 256.000000"
 preserveAspectRatio="xMidYMid meet">
<metadata>
Created by potrace 1.11, written by Peter Selinger 2001-2013
</metadata>
<g transform="translate(0.000000,256.000000) scale(0.100000,-0.100000)"
fill="#000000" stroke="none">
<path d="M1138 2345 c-2 -2 -28 -5 -59 -8 -142 -15 -319 -65 -465 -132 -259
-119 -472 -340 -548 -565 -34 -101 -44 -171 -40 -282 14 -409 17 -429 96 -583
143 -278 462 -487 863 -566 85 -17 148 -22 280 -23 174 -1 203 2 340 28 295
58 582 221 747 426 52 65 102 154 131 236 30 85 36 118 42 249 16 326 13 383
-31 513 -38 115 -107 224 -204 322 -197 200 -443 320 -765 371 -61 10 -379 21
-387 14z"/>
</g>
</svg>
